<!--?xml version="1.0" encoding="UTF-8"?-->
<svg id="Layer_1" data-name="Layer 1" xmlns="http://www.w3.org/2000/svg" xmlns:xlink="http://www.w3.org/1999/xlink" viewBox="0 0 974.5 983.99" width="974.5" height="983.989990234375">
  <defs>
    <style>
      .cls-1 {
        fill: #378240;
      }

      .cls-2 {
        fill: #5bac46;
      }

      .cls-3 {
        fill: #1a87c9;
      }

      .cls-4 {
        opacity: .55;
      }

      .cls-5 {
        clip-path: url(#clippath);
      }

      .cls-6 {
        fill: none;
      }

      .cls-7 {
        fill: #1d4594;
      }

      .cls-8 {
        fill: #174e99;
      }
      /***************************************************
      * Generated by SVG Artista on 3/7/2024, 1:41:39 PM
      * MIT license (https://opensource.org/licenses/MIT)
      * W. https://svgartista.net
      **************************************************/

      .svg-elem-1 {
        -webkit-animation: animate-svg-fill-1 1s cubic-bezier(0.95, 0.05, 0.795, 0.035) 0.2s both;
                animation: animate-svg-fill-1 1s cubic-bezier(0.95, 0.05, 0.795, 0.035) 0.2s both;
      }

      @-webkit-keyframes animate-svg-fill-2 {
        0% {
          fill: transparent;
        }

        100% {
          fill: rgb(29, 69, 148);
        }
      }

      @keyframes animate-svg-fill-2 {
        0% {
          fill: transparent;
        }

        100% {
          fill: rgb(29, 69, 148);
        }
      }

      .svg-elem-2 {
        -webkit-animation: animate-svg-fill-2 1s cubic-bezier(0.95, 0.05, 0.795, 0.035) 0.30000000000000004s both;
                animation: animate-svg-fill-2 1s cubic-bezier(0.95, 0.05, 0.795, 0.035) 0.30000000000000004s both;
      }

      @-webkit-keyframes animate-svg-fill-3 {
        0% {
          fill: transparent;
        }

        100% {
          fill: rgb(29, 69, 148);
        }
      }

      @keyframes animate-svg-fill-3 {
        0% {
          fill: transparent;
        }

        100% {
          fill: rgb(29, 69, 148);
        }
      }

      .svg-elem-3 {
        -webkit-animation: animate-svg-fill-3 1s cubic-bezier(0.95, 0.05, 0.795, 0.035) 0.4s both;
                animation: animate-svg-fill-3 1s cubic-bezier(0.95, 0.05, 0.795, 0.035) 0.4s both;
      }

      @-webkit-keyframes animate-svg-fill-4 {
        0% {
          fill: transparent;
        }

        100% {
          fill: rgb(29, 69, 148);
        }
      }

      @keyframes animate-svg-fill-4 {
        0% {
          fill: transparent;
        }

        100% {
          fill: rgb(29, 69, 148);
        }
      }

      .svg-elem-4 {
        -webkit-animation: animate-svg-fill-4 1s cubic-bezier(0.95, 0.05, 0.795, 0.035) 0.5s both;
                animation: animate-svg-fill-4 1s cubic-bezier(0.95, 0.05, 0.795, 0.035) 0.5s both;
      }

      @-webkit-keyframes animate-svg-fill-5 {
        0% {
          fill: transparent;
        }

        100% {
          fill: rgb(29, 69, 148);
        }
      }

      @keyframes animate-svg-fill-5 {
        0% {
          fill: transparent;
        }

        100% {
          fill: rgb(29, 69, 148);
        }
      }

      .svg-elem-5 {
        -webkit-animation: animate-svg-fill-5 1s cubic-bezier(0.95, 0.05, 0.795, 0.035) 0.6000000000000001s both;
                animation: animate-svg-fill-5 1s cubic-bezier(0.95, 0.05, 0.795, 0.035) 0.6000000000000001s both;
      }

      @-webkit-keyframes animate-svg-fill-6 {
        0% {
          fill: transparent;
        }

        100% {
          fill: rgb(23, 78, 153);
        }
      }

      @keyframes animate-svg-fill-6 {
        0% {
          fill: transparent;
        }

        100% {
          fill: rgb(23, 78, 153);
        }
      }

      .svg-elem-6 {
        -webkit-animation: animate-svg-fill-6 1s cubic-bezier(0.95, 0.05, 0.795, 0.035) 0.7s both;
                animation: animate-svg-fill-6 1s cubic-bezier(0.95, 0.05, 0.795, 0.035) 0.7s both;
      }

      @-webkit-keyframes animate-svg-fill-7 {
        0% {
          fill: transparent;
        }

        100% {
          fill: rgb(23, 78, 153);
        }
      }

      @keyframes animate-svg-fill-7 {
        0% {
          fill: transparent;
        }

        100% {
          fill: rgb(23, 78, 153);
        }
      }

      .svg-elem-7 {
        -webkit-animation: animate-svg-fill-7 1s cubic-bezier(0.95, 0.05, 0.795, 0.035) 0.8s both;
                animation: animate-svg-fill-7 1s cubic-bezier(0.95, 0.05, 0.795, 0.035) 0.8s both;
      }

      @-webkit-keyframes animate-svg-fill-8 {
        0% {
          fill: transparent;
        }

        100% {
          fill: rgb(23, 78, 153);
        }
      }

      @keyframes animate-svg-fill-8 {
        0% {
          fill: transparent;
        }

        100% {
          fill: rgb(23, 78, 153);
        }
      }

      .svg-elem-8 {
        -webkit-animation: animate-svg-fill-8 1s cubic-bezier(0.95, 0.05, 0.795, 0.035) 0.9000000000000001s both;
                animation: animate-svg-fill-8 1s cubic-bezier(0.95, 0.05, 0.795, 0.035) 0.9000000000000001s both;
      }

      @-webkit-keyframes animate-svg-fill-9 {
        0% {
          fill: transparent;
        }

        100% {
          fill: rgb(23, 78, 153);
        }
      }

      @keyframes animate-svg-fill-9 {
        0% {
          fill: transparent;
        }

        100% {
          fill: rgb(23, 78, 153);
        }
      }

      .svg-elem-9 {
        -webkit-animation: animate-svg-fill-9 1s cubic-bezier(0.95, 0.05, 0.795, 0.035) 1s both;
                animation: animate-svg-fill-9 1s cubic-bezier(0.95, 0.05, 0.795, 0.035) 1s both;
      }

      @-webkit-keyframes animate-svg-fill-10 {
        0% {
          fill: transparent;
        }

        100% {
          fill: rgb(23, 78, 153);
        }
      }

      @keyframes animate-svg-fill-10 {
        0% {
          fill: transparent;
        }

        100% {
          fill: rgb(23, 78, 153);
        }
      }

      .svg-elem-10 {
        -webkit-animation: animate-svg-fill-10 1s cubic-bezier(0.95, 0.05, 0.795, 0.035) 1.1s both;
                animation: animate-svg-fill-10 1s cubic-bezier(0.95, 0.05, 0.795, 0.035) 1.1s both;
      }

      @-webkit-keyframes animate-svg-fill-11 {
        0% {
          fill: transparent;
        }

        100% {
          fill: rgb(23, 78, 153);
        }
      }

      @keyframes animate-svg-fill-11 {
        0% {
          fill: transparent;
        }

        100% {
          fill: rgb(23, 78, 153);
        }
      }

      .svg-elem-11 {
        -webkit-animation: animate-svg-fill-11 1s cubic-bezier(0.95, 0.05, 0.795, 0.035) 1.2s both;
                animation: animate-svg-fill-11 1s cubic-bezier(0.95, 0.05, 0.795, 0.035) 1.2s both;
      }

      @-webkit-keyframes animate-svg-fill-12 {
        0% {
          fill: transparent;
        }

        100% {
          fill: rgb(23, 78, 153);
        }
      }

      @keyframes animate-svg-fill-12 {
        0% {
          fill: transparent;
        }

        100% {
          fill: rgb(23, 78, 153);
        }
      }

      .svg-elem-12 {
        -webkit-animation: animate-svg-fill-12 1s cubic-bezier(0.95, 0.05, 0.795, 0.035) 1.3s both;
                animation: animate-svg-fill-12 1s cubic-bezier(0.95, 0.05, 0.795, 0.035) 1.3s both;
      }

      @-webkit-keyframes animate-svg-fill-13 {
        0% {
          fill: transparent;
        }

        100% {
          fill: rgb(23, 78, 153);
        }
      }

      @keyframes animate-svg-fill-13 {
        0% {
          fill: transparent;
        }

        100% {
          fill: rgb(23, 78, 153);
        }
      }

      .svg-elem-13 {
        -webkit-animation: animate-svg-fill-13 1s cubic-bezier(0.95, 0.05, 0.795, 0.035) 1.4000000000000001s both;
                animation: animate-svg-fill-13 1s cubic-bezier(0.95, 0.05, 0.795, 0.035) 1.4000000000000001s both;
      }

      @-webkit-keyframes animate-svg-fill-14 {
        0% {
          fill: transparent;
        }

        100% {
          fill: rgb(23, 78, 153);
        }
      }

      @keyframes animate-svg-fill-14 {
        0% {
          fill: transparent;
        }

        100% {
          fill: rgb(23, 78, 153);
        }
      }

      .svg-elem-14 {
        -webkit-animation: animate-svg-fill-14 1s cubic-bezier(0.95, 0.05, 0.795, 0.035) 1.5s both;
                animation: animate-svg-fill-14 1s cubic-bezier(0.95, 0.05, 0.795, 0.035) 1.5s both;
      }

      @-webkit-keyframes animate-svg-fill-15 {
        0% {
          fill: transparent;
        }

        100% {
          fill: rgb(23, 78, 153);
        }
      }

      @keyframes animate-svg-fill-15 {
        0% {
          fill: transparent;
        }

        100% {
          fill: rgb(23, 78, 153);
        }
      }

      .svg-elem-15 {
        -webkit-animation: animate-svg-fill-15 1s cubic-bezier(0.95, 0.05, 0.795, 0.035) 1.6s both;
                animation: animate-svg-fill-15 1s cubic-bezier(0.95, 0.05, 0.795, 0.035) 1.6s both;
      }

      @-webkit-keyframes animate-svg-fill-16 {
        0% {
          fill: transparent;
        }

        100% {
          fill: rgb(23, 78, 153);
        }
      }

      @keyframes animate-svg-fill-16 {
        0% {
          fill: transparent;
        }

        100% {
          fill: rgb(23, 78, 153);
        }
      }

      .svg-elem-16 {
        -webkit-animation: animate-svg-fill-16 1s cubic-bezier(0.95, 0.05, 0.795, 0.035) 1.7s both;
                animation: animate-svg-fill-16 1s cubic-bezier(0.95, 0.05, 0.795, 0.035) 1.7s both;
      }

      @-webkit-keyframes animate-svg-fill-17 {
        0% {
          fill: transparent;
        }

        100% {
          fill: rgb(23, 78, 153);
        }
      }

      @keyframes animate-svg-fill-17 {
        0% {
          fill: transparent;
        }

        100% {
          fill: rgb(23, 78, 153);
        }
      }

      .svg-elem-17 {
        -webkit-animation: animate-svg-fill-17 1s cubic-bezier(0.95, 0.05, 0.795, 0.035) 1.8s both;
                animation: animate-svg-fill-17 1s cubic-bezier(0.95, 0.05, 0.795, 0.035) 1.8s both;
      }

      @-webkit-keyframes animate-svg-fill-18 {
        0% {
          fill: transparent;
        }

        100% {
          fill: rgb(23, 78, 153);
        }
      }

      @keyframes animate-svg-fill-18 {
        0% {
          fill: transparent;
        }

        100% {
          fill: rgb(23, 78, 153);
        }
      }

      .svg-elem-18 {
        -webkit-animation: animate-svg-fill-18 1s cubic-bezier(0.95, 0.05, 0.795, 0.035) 1.9000000000000001s both;
                animation: animate-svg-fill-18 1s cubic-bezier(0.95, 0.05, 0.795, 0.035) 1.9000000000000001s both;
      }

      @-webkit-keyframes animate-svg-fill-19 {
        0% {
          fill: transparent;
        }

        100% {
          fill: rgb(23, 78, 153);
        }
      }

      @keyframes animate-svg-fill-19 {
        0% {
          fill: transparent;
        }

        100% {
          fill: rgb(23, 78, 153);
        }
      }

      .svg-elem-19 {
        -webkit-animation: animate-svg-fill-19 1s cubic-bezier(0.95, 0.05, 0.795, 0.035) 2s both;
                animation: animate-svg-fill-19 1s cubic-bezier(0.95, 0.05, 0.795, 0.035) 2s both;
      }

      @-webkit-keyframes animate-svg-fill-20 {
        0% {
          fill: transparent;
        }

        100% {
          fill: rgb(23, 78, 153);
        }
      }

      @keyframes animate-svg-fill-20 {
        0% {
          fill: transparent;
        }

        100% {
          fill: rgb(23, 78, 153);
        }
      }

      .svg-elem-20 {
        -webkit-animation: animate-svg-fill-20 1s cubic-bezier(0.95, 0.05, 0.795, 0.035) 2.1s both;
                animation: animate-svg-fill-20 1s cubic-bezier(0.95, 0.05, 0.795, 0.035) 2.1s both;
      }

      @-webkit-keyframes animate-svg-fill-21 {
        0% {
          fill: transparent;
        }

        100% {
          fill: rgb(23, 78, 153);
        }
      }

      @keyframes animate-svg-fill-21 {
        0% {
          fill: transparent;
        }

        100% {
          fill: rgb(23, 78, 153);
        }
      }

      .svg-elem-21 {
        -webkit-animation: animate-svg-fill-21 1s cubic-bezier(0.95, 0.05, 0.795, 0.035) 2.2s both;
                animation: animate-svg-fill-21 1s cubic-bezier(0.95, 0.05, 0.795, 0.035) 2.2s both;
      }

      @-webkit-keyframes animate-svg-fill-22 {
        0% {
          fill: transparent;
        }

        100% {
          fill: rgb(23, 78, 153);
        }
      }

      @keyframes animate-svg-fill-22 {
        0% {
          fill: transparent;
        }

        100% {
          fill: rgb(23, 78, 153);
        }
      }

      .svg-elem-22 {
        -webkit-animation: animate-svg-fill-22 1s cubic-bezier(0.95, 0.05, 0.795, 0.035) 2.3000000000000003s both;
                animation: animate-svg-fill-22 1s cubic-bezier(0.95, 0.05, 0.795, 0.035) 2.3000000000000003s both;
      }

      @-webkit-keyframes animate-svg-fill-23 {
        0% {
          fill: transparent;
        }

        100% {
          fill: rgb(23, 78, 153);
        }
      }

      @keyframes animate-svg-fill-23 {
        0% {
          fill: transparent;
        }

        100% {
          fill: rgb(23, 78, 153);
        }
      }

      .svg-elem-23 {
        -webkit-animation: animate-svg-fill-23 1s cubic-bezier(0.95, 0.05, 0.795, 0.035) 2.4000000000000004s both;
                animation: animate-svg-fill-23 1s cubic-bezier(0.95, 0.05, 0.795, 0.035) 2.4000000000000004s both;
      }

      @-webkit-keyframes animate-svg-fill-24 {
        0% {
          fill: transparent;
        }

        100% {
          fill: rgb(23, 78, 153);
        }
      }

      @keyframes animate-svg-fill-24 {
        0% {
          fill: transparent;
        }

        100% {
          fill: rgb(23, 78, 153);
        }
      }

      .svg-elem-24 {
        -webkit-animation: animate-svg-fill-24 1s cubic-bezier(0.95, 0.05, 0.795, 0.035) 2.5000000000000004s both;
                animation: animate-svg-fill-24 1s cubic-bezier(0.95, 0.05, 0.795, 0.035) 2.5000000000000004s both;
      }

      @-webkit-keyframes animate-svg-fill-25 {
        0% {
          fill: transparent;
        }

        100% {
          fill: rgb(23, 78, 153);
        }
      }

      @keyframes animate-svg-fill-25 {
        0% {
          fill: transparent;
        }

        100% {
          fill: rgb(23, 78, 153);
        }
      }

      .svg-elem-25 {
        -webkit-animation: animate-svg-fill-25 1s cubic-bezier(0.95, 0.05, 0.795, 0.035) 2.6000000000000005s both;
                animation: animate-svg-fill-25 1s cubic-bezier(0.95, 0.05, 0.795, 0.035) 2.6000000000000005s both;
      }

      @-webkit-keyframes animate-svg-fill-26 {
        0% {
          fill: transparent;
        }

        100% {
          fill: rgb(23, 78, 153);
        }
      }

      @keyframes animate-svg-fill-26 {
        0% {
          fill: transparent;
        }

        100% {
          fill: rgb(23, 78, 153);
        }
      }

      .svg-elem-26 {
        -webkit-animation: animate-svg-fill-26 1s cubic-bezier(0.95, 0.05, 0.795, 0.035) 2.7s both;
                animation: animate-svg-fill-26 1s cubic-bezier(0.95, 0.05, 0.795, 0.035) 2.7s both;
      }

      @-webkit-keyframes animate-svg-fill-27 {
        0% {
          fill: transparent;
        }

        100% {
          fill: rgb(23, 78, 153);
        }
      }

      @keyframes animate-svg-fill-27 {
        0% {
          fill: transparent;
        }

        100% {
          fill: rgb(23, 78, 153);
        }
      }

      .svg-elem-27 {
        -webkit-animation: animate-svg-fill-27 1s cubic-bezier(0.95, 0.05, 0.795, 0.035) 2.8000000000000003s both;
                animation: animate-svg-fill-27 1s cubic-bezier(0.95, 0.05, 0.795, 0.035) 2.8000000000000003s both;
      }

      @-webkit-keyframes animate-svg-fill-28 {
        0% {
          fill: transparent;
        }

        100% {
          fill: rgb(26, 135, 201);
        }
      }

      @keyframes animate-svg-fill-28 {
        0% {
          fill: transparent;
        }

        100% {
          fill: rgb(26, 135, 201);
        }
      }

      .svg-elem-28 {
        -webkit-animation: animate-svg-fill-28 1s cubic-bezier(0.95, 0.05, 0.795, 0.035) 2.9000000000000004s both;
                animation: animate-svg-fill-28 1s cubic-bezier(0.95, 0.05, 0.795, 0.035) 2.9000000000000004s both;
      }

      @-webkit-keyframes animate-svg-fill-29 {
        0% {
          fill: transparent;
        }

        100% {
          fill: rgb(91, 172, 70);
        }
      }

      @keyframes animate-svg-fill-29 {
        0% {
          fill: transparent;
        }

        100% {
          fill: rgb(91, 172, 70);
        }
      }

      .svg-elem-29 {
        -webkit-animation: animate-svg-fill-29 1s cubic-bezier(0.95, 0.05, 0.795, 0.035) 3.0000000000000004s both;
                animation: animate-svg-fill-29 1s cubic-bezier(0.95, 0.05, 0.795, 0.035) 3.0000000000000004s both;
      }

      @-webkit-keyframes animate-svg-fill-30 {
        0% {
          fill: transparent;
        }

        100% {
          fill: rgb(26, 135, 201);
        }
      }

      @keyframes animate-svg-fill-30 {
        0% {
          fill: transparent;
        }

        100% {
          fill: rgb(26, 135, 201);
        }
      }

      .svg-elem-30 {
        -webkit-animation: animate-svg-fill-30 1s cubic-bezier(0.95, 0.05, 0.795, 0.035) 3.1000000000000005s both;
                animation: animate-svg-fill-30 1s cubic-bezier(0.95, 0.05, 0.795, 0.035) 3.1000000000000005s both;
      }

      @-webkit-keyframes animate-svg-fill-31 {
        0% {
          fill: transparent;
        }

        100% {
          fill: rgb(55, 130, 64);
        }
      }

      @keyframes animate-svg-fill-31 {
        0% {
          fill: transparent;
        }

        100% {
          fill: rgb(55, 130, 64);
        }
      }

      .svg-elem-31 {
        -webkit-animation: animate-svg-fill-31 1s cubic-bezier(0.95, 0.05, 0.795, 0.035) 3.2s both;
                animation: animate-svg-fill-31 1s cubic-bezier(0.95, 0.05, 0.795, 0.035) 3.2s both;
      }

      @-webkit-keyframes animate-svg-fill-32 {
        0% {
          fill: transparent;
        }

        100% {
          fill: rgb(91, 172, 70);
        }
      }

      @keyframes animate-svg-fill-32 {
        0% {
          fill: transparent;
        }

        100% {
          fill: rgb(91, 172, 70);
        }
      }

      .svg-elem-32 {
        -webkit-animation: animate-svg-fill-32 1s cubic-bezier(0.95, 0.05, 0.795, 0.035) 3.3000000000000003s both;
                animation: animate-svg-fill-32 1s cubic-bezier(0.95, 0.05, 0.795, 0.035) 3.3000000000000003s both;
      }

      @-webkit-keyframes animate-svg-fill-33 {
        0% {
          fill: transparent;
        }

        100% {
          fill: rgb(55, 130, 64);
        }
      }

      @keyframes animate-svg-fill-33 {
        0% {
          fill: transparent;
        }

        100% {
          fill: rgb(55, 130, 64);
        }
      }

      .svg-elem-33 {
        -webkit-animation: animate-svg-fill-33 1s cubic-bezier(0.95, 0.05, 0.795, 0.035) 3.4000000000000004s both;
                animation: animate-svg-fill-33 1s cubic-bezier(0.95, 0.05, 0.795, 0.035) 3.4000000000000004s both;
      }

      @-webkit-keyframes animate-svg-fill-34 {
        0% {
          fill: transparent;
        }

        100% {
          fill: rgb(91, 172, 70);
        }
      }

      @keyframes animate-svg-fill-34 {
        0% {
          fill: transparent;
        }

        100% {
          fill: rgb(91, 172, 70);
        }
      }

      .svg-elem-34 {
        -webkit-animation: animate-svg-fill-34 1s cubic-bezier(0.95, 0.05, 0.795, 0.035) 3.5000000000000004s both;
                animation: animate-svg-fill-34 1s cubic-bezier(0.95, 0.05, 0.795, 0.035) 3.5000000000000004s both;
      }


    </style>
    <clipPath id="clippath">
      <ellipse class="cls-6 svg-elem-1" cx="460.12" cy="448.72" rx="316.6" ry="330.88"></ellipse>
    </clipPath>
  </defs>
  <g>
    <path class="cls-7 svg-elem-2" d="m651.3,471.08c1.68,1.36,3.01,2.51,3.68,3.23,2.97,3.17,13.98,12.51,17.72,15.22,1.25.05,3.01-.19,3.83-1.74,0,0,0,0,0-.01l1.83-3.27c-2.32-1.29-10.28-5.83-14.35-9.21-1.41-1.17-4.35-3.09-7.89-5.26-.49-.3-.99-.6-1.49-.9-8.37-5.04-19.22-10.98-21.78-11.98,0,0,10.56,7.63,17.25,12.96.42.33.82.65,1.2.96Z"></path>
    <path class="cls-7 svg-elem-3" d="m440.65,566.99l18-6c11-4,10.46,5.5,27,2s38,5,38,5c0,0,12.6-.64,18-1s12.34,2.06,16.67,3.03,15.09,1,15.09,1c31.76-2.34,33.12,1.9,48.08,3.2,0,0,8.22,1.77,13.16,1.77,8,0,17,1,17,1,.7.05,2.25-.97,2.65-1.54,1.06-1.5,2.36-3.17,3.93-5.11,2.23-2.74,7.02-7.27,11.75-11.56.09-.08.18-.15.28-.21,2.29-1.4,4.78-3.4,6.82-6.21.85-1.16,1.62-2.49,2.25-3.97.07-.16.16-.32.27-.45,3.55-4.45,6.87-7.64,9.67-9.92.5-.4.98-.76,1.44-1.12.96-.72,1.84-1.32,2.64-1.82,1.36-.86,1.18-2.85-.27-3.53-.01,0-.03-.01-.04-.02-1.54-.73-3-1.65-4.27-2.74l-.47-.43-.25-.19-.21-.24-.8-.82s-.09-.1-.13-.15c-.49-.63-1.03-1.24-1.42-1.91-.46-.65-.77-1.37-1.13-2.08-.03-.05-.06-.11-.08-.17-.3-.72-.57-1.44-.79-2.18-.46-1.53-.7-3.12-.8-4.68-.1-1.57-.04-3.13.1-4.69.16-1.54.39-3.07.63-4.59.12-.76.24-1.52.3-2.28.04-.76.08-1.54-.17-2.28.34.71.42,1.51.44,2.29.01.77-.03,1.54-.08,2.31-.09,1.54-.24,3.09-.29,4.6-.06,1.53-.03,3.05.12,4.57.14,1.51.42,3.01.89,4.46.21.7.49,1.38.78,2.05.02.05.05.1.07.15.35.65.64,1.32,1.07,1.93.38.64.87,1.21,1.33,1.8.03.04.07.09.11.13.5.54,1.02,1.1,1.61,1.59,1.17,1.02,2.51,1.93,3.95,2.65,1.44.71,2.98,1.33,4.54,1.67l.34.09s3.84,3.29,12.18.51c.34-.11.71-.14,1.07-.07,1.73.36,7.57,1.18,14.53-2.02,4.6-2.05,7.93-3.14,10.31-3.53h.01c.59-.1,1.13-.17,1.62-.18.48-.02.87,0,1.26.06-.22-.33-.41-.67-.59-1.02-.29-.57-.51-1.17-.71-1.78-.02-.07-.04-.13-.06-.2-.34-1.15-.48-2.34-.42-3.52.05.11.09.21.12.31.4,1.01.77,1.99,1.21,2.94.17.38.36.75.56,1.11.33.66.7,1.29,1.11,1.88.18.25.36.49.54.73.24.31.56.53.93.66,2.3.76,6.66,1.05,11.71-4.45-.45-.17-.92-.36-1.33-.6-.62-.35-1.19-.74-1.72-1.21-1.02-.92-1.79-2.07-2.29-3.26-.51-1.2-.79-2.48-.7-3.73.4,1.2.93,2.31,1.57,3.36.62,1.05,1.38,2.02,2.28,2.83.44.41.92.78,1.44,1.1.52.34,1.09.61,1.66.87.14.06.28.11.44.17,1.49-.29,4.2-1.42,5.09-5.65.46-2.22.38-3.82.05-4.97-.43-1.51-2.31-1.95-3.41-.83-.48.5-1.16.98-2.1,1.4-3.75,1.65-6.65-1.98-5.49-2.73,1.15-.75,2.08-.19,3.88.88.82.49,1.73.42,2.55.01,1.25-.61,1.48-2.34.44-3.27-1.58-1.41-4.31-3.19-8.43-3.8-3.97-.59-9.29-1.79-14.09-3.21-.49-.13-.97-.28-1.45-.43-3.24-1.02-6.15-2.12-8.07-3.17-.16-.07-.3-.16-.44-.23-3.34-1.79-5.05-2.56-5.75-2.87-.03.04-.05.06-.08.09l-.19.21-.28-.13c-1.92-.82-3.83-1.65-5.72-2.52-.95-.45-1.89-.88-2.82-1.34l-.98-.47-1.83-.88c.97.28,1.91.63,2.86.97.04.02.08.04.12.05.97.36,1.95.73,2.92,1.12,1.8.7,3.58,1.44,5.36,2.21-.37-.64-1.14-1.77-2.46-2.82-.68-.54-1.49-1.06-2.48-1.48-3.83-1.65-13.59-5.88-18.8-5.38-.18.02-.36.01-.54-.02-1.5-.27-9.05-1.5-13.55.8-.34.17-.6.46-.79.79l-.66,1.17c1.2-.54,2.73-.88,4.31-.88,2.6.02,4.77,1.03,6.26,2.9.29.35.55.74.79,1.17,1.45,2.6.81,5.34-1.82,7.92-.15.14-.3.29-.46.44-2.13,1.92-4.91,3.29-8.02,3.97h-.05c-3.35.74-13.68,2.29-24.47,1.9-1.68-.07-3.38-.18-5.06-.35-.3-.03-.6,0-.89.11-1.95.71-3.84,1.54-5.58,2.58-1.16.72-2.29,1.52-3.12,2.51-.4.51-.73,1.05-.89,1.63-.16.57-.15,1.16.04,1.75.2.6.48,1.15.91,1.5.42.36,1.02.48,1.68.51.67.02,1.38-.05,2.1-.1.71-.04,1.44-.11,2.19-.12,1.48-.05,2.99.1,4.46.42,1.46.33,2.86.85,4.19,1.5,1.32.64,2.55,1.44,3.72,2.27,1.12.8,2.32,1.49,3.58,2,1.28.51,2.65.74,3.97.67,1.34-.11,2.63-.55,3.74-1.27.22-.13.42-.27.61-.42.87-.65,1.63-1.43,2.3-2.28.83-1.03,1.51-2.17,2.09-3.37.27-.59.54-1.21.72-1.82.2-.64.42-1.31.85-1.88.81-1.15,2.24-1.84,3.68-1.87-.71.08-1.4.31-1.97.66-.6.35-1.09.82-1.43,1.38-.32.48-.48,1.01-.61,1.57-.27,1.16-.67,2.29-1.2,3.36-.41.84-.89,1.65-1.46,2.42-.64.9-1.4,1.75-2.31,2.47-.23.19-.46.35-.7.52-1.18.82-2.64,1.39-4.18,1.54-1.54.12-3.1-.13-4.51-.67-1.4-.53-2.69-1.28-3.88-2.12-1.14-.8-2.31-1.54-3.57-2.15-1.24-.61-2.55-1.11-3.91-1.42-1.34-.32-2.73-.45-4.15-.43-.68,0-1.4.04-2.12.08-.72.04-1.44.1-2.21.07-.4-.04-.8-.06-1.21-.2-.19-.05-.4-.16-.6-.25-.19-.11-.39-.2-.53-.36-.66-.59-.95-1.31-1.13-1.99-.22-.71-.2-1.5.02-2.18.22-.71.62-1.33,1.12-1.86.96-1.07,2.17-1.85,3.42-2.53,1.26-.64,2.58-1.19,3.93-1.67.49-.16.97-.31,1.47-.48l-.79.22s-5.95,1.36-9.58,1.31c-.68,0-1.48-.08-2.34-.21,2.7,1,4.68,1.49,4.82,1.54-.15-.01-2.78-.07-8.03-.1-1.99-.03-4.28-.05-6.51-.1-3.83-.09-7.39-.21-8.64-.29-1.96-.12-5.26-1.52-11.99-1.52-.49,0-1.03,0-1.62,0-7.4.12-21.59.96-27.07,2.29-3.18.77-7.2,1.92-11.13,3.45-3.36,1.33-6.65,2.96-9.24,4.9-5.63,4.2-9.46,5.35-13.19,5.77-3.74.44-10.24.81-16.9,1.43-6.67.63-22.95,3.45-22.95,3.45,0,0-4.98.86-7.86,1.23-2.66.35-5.83,1.02-9.5.8-.3-.03-.62-.05-.94-.08-4.06-.42-7.64-1.92-13.37-.28-5.66,1.6-7.55,3.56-10.25,7.36-.04.04-.06.09-.1.13-3.27,5.67-9.2,7.51-12.27,14.67m211.42-42.3c-2.59.49-3.97,2.83-5.59,2.03-2.36-1.18-.73-3.41,3.71-3.25.23.01.45.03.67.04,3.99.35,5.87,2.26,5.69,2.16-1.84-1.03-3.28-1.21-4.48-.98Zm11.99,5.64c-1.28,1.2-2.66,1.83-4,2.12-3.48.72-6.57-.9-6.57-.9,0,0,2.07-.67,3.77-1.83,1.98-1.33,3.45-3.3.56-5.58-2-1.59-4.99-1.86-7.95-1.57-4.82.47-9.58,2.42-9.79,2.52,1.58-2.01,4.81-3.39,8.41-3.87,4.03-.54,8.53.04,11.75,2.09,6.06,3.89,3.82,7.02,3.82,7.02Zm2.05-2.13c-1.24-5.68-5.74-7.02-6.02-7.12,6.23.98,6.02,7.12,6.02,7.12Zm28.23-18.41c1.06-.31,2.22-.38,3.34-.17,1.11.22,2.16.72,3,1.41.83.67,1.49,1.49,1.96,2.41h-.01c-.73-.73-1.51-1.4-2.34-1.95-.21-.14-.44-.25-.65-.38-.23-.11-.45-.22-.69-.31-.47-.19-.94-.35-1.45-.43-.97-.21-2-.18-3.01,0-1,.17-2,.47-2.97.89.79-.68,1.76-1.18,2.81-1.46Zm-8.69,1.53c.64.6,1.34,1.14,2.09,1.47.76.33,1.55.41,2.27.17.18-.06.35-.13.52-.22l.6-.3,1.2-.61c.82-.39,1.66-.82,2.63-1.05.94-.24,2.04-.31,3.02.02.98.32,1.79.91,2.43,1.57.34.35.65.7.92,1.09.26.36.49.72.68,1.07-.37-.36-.74-.73-1.13-1.06-.27-.25-.57-.48-.87-.69-.29-.22-.58-.41-.88-.56.08.44.08.87-.02,1.28-.28,1.1-1.19,2.02-2.46,2.3-1.76.38-3.55-.58-4.08-2.17-.01-.05-.04-.11-.05-.17-.04-.13-.06-.26-.07-.38l-.72.35-.5.23-.11.06c-.23.11-.49.21-.74.27-.9.26-1.89.14-2.7-.23h-.01c-.13-.06-.25-.12-.35-.19-.89-.49-1.56-1.17-2.12-1.89-.54-.74-1-1.5-1.29-2.32.55.7,1.13,1.37,1.76,1.97Zm17.08,11.42c-.5.38-1.02.74-1.54,1.11-.56.29-1.11.63-1.71.88-1.19.51-2.46.9-3.81,1.04-1.32.12-2.69.04-3.99-.32-1.29-.35-2.52-.96-3.42-1.84,1.12.64,2.34,1.04,3.57,1.28,1.25.22,2.5.25,3.75.12l.92-.11c.31-.05.62-.14.91-.21.63-.1,1.2-.34,1.82-.51.31-.07.58-.22.87-.33l.9-.34c.56-.26,1.12-.53,1.74-.77Zm.52,4.92c-.56.39-1.13.79-1.77,1.12-1.24.69-2.66,1.11-4.08,1.36l-1.07.16-1.08.08c-.36.03-.72.05-1.11.05-.37,0-.73-.03-1.12-.07-.36-.04-.75-.12-1.11-.2-.37-.1-.74-.18-1.09-.33-.7-.25-1.37-.6-1.98-1.02-.61-.41-1.16-.89-1.65-1.4s-.93-1.07-1.31-1.66c-.76-1.15-1.31-2.4-1.74-3.66-.42-1.27-.71-2.57-.81-3.88.73,2.52,1.8,4.96,3.36,7.06.8,1.03,1.71,1.98,2.82,2.67.27.18.57.32.86.47.3.13.58.28.89.39.3.12.62.18.93.28.32.05.64.12.98.14.32.04.64.08.98.08.32.01.67,0,1.02-.03l1.02-.06,1-.14c1.35-.17,2.63-.53,3.84-1.08.6-.26,1.16-.6,1.76-.94.59-.35,1.19-.7,1.88-.97.68-.24,1.42-.36,2.16-.33.36.03.71.1,1.07.15l1.02.28-1.04-.11c-.35,0-.69-.02-1.04,0-.68.05-1.32.23-1.9.51-.59.3-1.12.69-1.67,1.08Zm7.94,5.43c1.5.25,2.89.8,4.18,1.52,1.22.72,2.48,1.33,3.83,1.72,1.34.38,2.79.58,4.2.27-.64.33-1.4.47-2.13.5-.75.04-1.49-.03-2.23-.19-.74-.14-1.43-.4-2.13-.66-.34-.16-.69-.3-1-.48l-.97-.52c-1.21-.7-2.5-1.25-3.87-1.59-1.36-.32-2.8-.4-4.22-.14,1.3-.56,2.87-.68,4.34-.43Zm-2.94,2.08c.61-.21,1.27-.24,1.93-.21s1.3.14,1.93.31c.62.17,1.23.39,1.81.68.57.28,1.1.63,1.6,1.04-.34-.06-.63-.16-.94-.23-.31-.09-.59-.18-.9-.27-.59-.17-1.19-.34-1.78-.5-1.19-.32-2.36-.6-3.64-.82Zm16.72,4.82c-.65.22-1.29.45-1.89.75-.61.27-1.19.6-1.71.97l-.39.28-.39.31c-.27.21-.53.42-.81.62-.53.41-1.09.81-1.64,1.2-1.13.78-2.28,1.52-3.49,2.17,1-.91,2.03-1.78,3.08-2.63l1.56-1.28.78-.64.38-.33.43-.32c1.18-.81,2.53-1.32,3.9-1.67,1.37-.36,2.8-.55,4.21-.56-1.36.32-2.7.68-4,1.12Zm-1.44-1.13c-.45.17-.86.4-1.29.6-.4.22-.83.43-1.21.7-.8.46-1.53,1.03-2.24,1.62-1.45,1.24-3.03,2.34-4.75,3.26-1.68.93-3.49,1.71-5.37,2.22,1.75-.81,3.44-1.71,5.03-2.71.8-.5,1.58-1.02,2.33-1.59.78-.54,1.49-1.13,2.19-1.74,1.49-1.25,3.2-2.26,5.05-2.91.92-.34,1.88-.6,2.86-.78.98-.17,1.96-.3,2.96-.26-1.95.3-3.81.83-5.55,1.59Zm17.75-15.39c-.77.14-1.46.5-1.97,1.03-.28.24-.44.54-.59.85-.14.33-.18.68-.2,1.03,0,.75.2,1.51.52,2.27-.61-.6-1.02-1.38-1.15-2.24-.07-.43-.04-.87.1-1.31.02-.11.07-.2.12-.3.05-.12.1-.21.16-.31l.2-.28.24-.24c.32-.33.7-.59,1.11-.78.43-.2.91-.31,1.37-.33.93-.05,1.84.24,2.55.74-.84-.22-1.69-.3-2.46-.15Z"></path>
    <path class="cls-7 svg-elem-4" d="m706.71,495.11c.13.48.12.95,0,1.39-.27.93-1.06,1.68-2.14,1.92-1.5.32-3.03-.47-3.55-1.8-.04-.09-.06-.17-.09-.26-.04-.17-.07-.33-.07-.48l.1-.05c.16-.08.32-.16.47-.24-.01.21.01.43.07.64.04.13.08.25.14.37.47.97,1.63,1.53,2.77,1.29.8-.17,1.41-.71,1.68-1.38.15-.4.18-.84.06-1.27-.06-.2-.13-.37-.24-.54.25.06.5.15.74.26.02.05.04.1.06.15Z"></path>
    <path class="cls-7 svg-elem-5" d="m689.26,489.57c-.41-.73-.88-1.31-1.39-1.78-1.45-1.32-3.19-1.65-4.55-1.66-1.81-.01-3.5.55-4.58,1.18-.56.33-.94.68-1.11.99h-.01c-.68,1.3-1.86,1.93-3.11,2.21-.76.16-1.54.18-2.22.14-4.27,1.26-17.35,4.64-27.77,1.49-2.62-.8-5.17-1.51-7.63-2.19-.43-.12-.85-.24-1.28-.35-3.04-.85-5.94-1.66-8.73-2.55-5.34-1.69-10.25-3.66-14.83-6.66-9.01-5.88-22.17-19.45-22.85-20.14.45.86,7.98,14.67,25.46,27.36.94.67,1.9,1.35,2.88,2.01,3.18,2.16,6.69,4.27,10.48,6.25.83.42,1.74.83,2.69,1.22.39.17.8.33,1.2.47,2.57.96,5.4,1.77,8.11,2.44,3.42.84,6.63,1.46,8.81,1.83l.04-.21c1.77.21,3.57.37,5.4.45,10.39.52,21.15-.86,25.39-1.78h.05c2.64-.59,5.02-1.7,6.91-3.24.19-.15.38-.31.55-.46,2.64-2.37,3.33-4.74,2.06-7.03Zm-3.6,1.68l-.86.74-.94.67c-.62.45-1.25.91-1.88,1.34l-2.02,1.2c-.66.42-1.38.73-2.09,1.07-.72.34-1.4.73-2.15.97l-.88.34-1.33.51-2.31.67c-3.09.82-6.28,1.31-9.51,1.44-3.23.12-6.47-.06-9.68-.48-.04-.01-.1-.01-.15-.02-.92-.13-1.83-.27-2.75-.46-5.25-.96-10.37-2.58-15.26-4.58-.12-.05-.23-.1-.34-.13-.3-.13-.57-.24-.85-.36-2.65-1.13-5.24-2.41-7.76-3.77-1.75-.97-3.48-1.97-5.15-3.04-.97-.62-1.95-1.27-2.88-1.96,1.1.66,2.22,1.32,3.35,1.93,1.63.9,3.29,1.77,4.98,2.58.57.28,1.13.54,1.7.81,2.05.96,4.13,1.87,6.25,2.7.23.11.48.19.72.29.03.01.05.01.05.01.14.06.3.11.43.17,2.82,1.06,5.65,2.01,8.54,2.79,2.51.67,5.02,1.26,7.58,1.67.57.1,1.13.17,1.71.25.7.1,1.39.19,2.1.25,2.44.25,4.89.35,7.34.29,3.15-.07,6.28-.53,9.31-1.23l.59-.15,1.69-.45,2.19-.76c.76-.21,1.45-.56,2.16-.85.72-.32,1.43-.6,2.11-.98l2.06-1.08c.65-.39,1.29-.81,1.95-1.21l.97-.62.92-.68,1.86-1.36-1.74,1.5Z"></path>
  </g>
  <g>
    <path class="cls-8 svg-elem-6" d="m235.79,502.06c-2.77-3.67-4.89-7.79-6.2-12.14-.18-.55-.32-1.12-.45-1.68-.13-.56-.27-1.11-.38-1.67-1.63.83-2.65,1.59-2.65,1.59.72-.74,1.61-1.4,2.58-1.99-.09-.57-.18-1.14-.27-1.71-.08-.57-.12-1.14-.17-1.7-1.59.66-2.96,1.48-3.94,2.14-.96.66-1.52,1.16-1.52,1.16,1.36-1.65,3.47-3.02,5.39-4.02-.05-.6-.04-1.21-.05-1.8,0-.6-.01-1.19.03-1.78-2.61.64-4.95,2.13-6.63,3.53-.85.7-1.51,1.37-1.95,1.86-.45.49-.69.81-.69.81.29-.52.63-1.03,1-1.51.38-.49.81-.96,1.26-1.41.89-.9,1.85-1.7,2.8-2.39,1.91-1.38,3.67-2.29,4.34-2.62.05-.59.15-1.17.23-1.75-.15.07-.31.14-.48.21-1.29.6-3.18,1.53-5.15,2.97-2,1.44-4.11,3.41-5.79,5.92-.81,1.25-1.57,2.63-2.09,4.08-.27.73-.52,1.48-.7,2.24-.17.76-.31,1.53-.41,2.3-.36,3.1-.01,6.25.9,9.01.41,1.4,1.01,2.68,1.59,3.89.61,1.19,1.33,2.26,1.97,3.25.33.49.66.95.97,1.38.32.43.67.82.99,1.19.64.73,1.21,1.36,1.7,1.86.48.51.87.89,1.14,1.15.28.25.43.39.43.39,0,0-.14-.14-.4-.41-.25-.28-.61-.68-1.04-1.22-.44-.53-.96-1.18-1.54-1.94-.28-.38-.6-.79-.88-1.23-.28-.45-.56-.92-.85-1.42-.56-1.01-1.18-2.09-1.68-3.29-.47-1.21-.96-2.48-1.25-3.85-.68-2.7-.76-5.7-.24-8.54v-.03c.51-2.43,2.91-3.01,5.1-2.4.63.17,1.21.44,1.78.76.58.32,1.13.7,1.64,1.11.98.81,1.91,1.72,2.63,2.56.56.67,1.15,1.33,1.67,2.03.53.69,1.06,1.38,1.6,2.08l.79,1.04.85,1c.57.67,1.14,1.32,1.73,1.94.59.67,1.32,1.28,1.98,1.9.68.62,1.35,1.23,2.04,1.83.74.57,1.48,1.13,2.22,1.67.75.54,1.47,1.09,2.3,1.56.3.18,2.09,1.25,3.46,1.73-3.59-2.73-6.92-5.97-9.69-9.64Z"></path>
    <path class="cls-8 svg-elem-7" d="m249.98,470.82c.13.37.32.73.47,1.1.16.37.3.73.48,1.09,0,0,.36-.25.91-.62.56-.37,1.31-.85,2.07-1.32,1.49-.93,3.07-1.79,3.07-1.79-2.36.11-5.11.86-7,1.54Z"></path>
    <path class="cls-8 svg-elem-8" d="m254.85,486.72s.13.28.33.7c.19.42.51.96.79,1.51.27.55.63,1.08.86,1.49.12.2.22.37.29.49.08.12.12.18.12.18,0,0,1.96.09,4.45-.16,2.5-.24,5.57-.86,7.89-1.89,0,0-.23-.01-.63-.04-.39-.03-.99-.06-1.66-.12-1.35-.12-3.22-.32-5.05-.62-1.87-.28-3.68-.66-5.09-.98-1.38-.32-2.3-.57-2.3-.57Z"></path>
    <path class="cls-8 svg-elem-9" d="m754.64,421.11l-.9-.59-1.23-.81s0,0,0,0h0c-215.62-140.48-527.81-37.53-578.96-19.17v21.05c326.55-112.77,515.13-36.54,577.97-1.14,0,0,0,0,0,0-6.74,4.95-35.08,24.34-80.37,36.17-47.95,12.54-125.27,18.93-221.35-21.8-72.4-30.7-128.86-38.49-167.78-23.14-29.75,11.72-39.79,33.99-42.46,41.72-.68,1.39-1.39,2.78-2.21,4.11-2.09,3.42-4.43,7.01-5.98,10.76-.97,2.41-1.64,4.95-1.98,7.56-.32,2.61-.29,5.29.04,7.97.32,2.69,1.04,5.37,2.02,7.99.97,2.63,2.28,5.2,3.85,7.65,1.56,2.45,3.35,4.82,5.43,6.99,1.04,1.09,2.03,2.19,3.2,3.19,1.15,1.01,2.22,2.05,3.47,2.96,4.8,3.78,10.22,6.86,15.77,9.21,4.41,1.89,9.16,3.23,13.87,3.88,1.57.17,3.16.35,4.57.71,1.42.35,2.62.99,3.43,2.24.81,1.18,1.93,2.68,3.36,4.29.73.77,1.54,1.56,2.42,2.37.44.4.9.8,1.38,1.2.48.39.98.75,1.49,1.12,1.03.73,2.12,1.44,3.24,2.1,1.14.61,2.32,1.17,3.51,1.65.6.24,1.2.47,1.8.66.6.18,1.2.33,1.8.46,1.19.26,2.37.42,3.5.46l-.71-.47c-1-.68-1.96-1.37-2.88-2.08-.92-.7-1.79-1.41-2.61-2.19-.82-.76-1.59-1.54-2.3-2.32-.36-.39-.7-.79-1.03-1.18-.33-.4-.64-.83-.94-1.24-1.52-2.12-3.06-4.69-2.34-7.06.68-2.23,2.95-3.93,4.73-5.48,1.25-1.07,2.49-2.15,3.74-3.22.61-.53,1.21-1.01,1.81-1.54l1.75-1.56s-.62.03-1.67.19c-.53.08-1.15.13-1.87.26-.72.1-1.53.31-2.41.47-3.52.77-8.15,1.95-13.03,4.56-.7.37-1.5.55-2.3.53-.8-.01-1.59-.2-2.22-.65,0,0-.37-.25-1.01-.68-.64-.43-1.56-1.02-2.57-1.83-.51-.39-1.06-.81-1.64-1.26-.58-.44-1.13-.97-1.72-1.48-.29-.26-.59-.52-.88-.78-.3-.26-.6-.52-.87-.81-.56-.56-1.12-1.13-1.69-1.71-.58-.54-1.06-1.18-1.57-1.75-.49-.59-1-1.13-1.43-1.7-.42-.57-.83-1.12-1.21-1.64-.19-.26-.37-.51-.55-.75-.17-.25-.32-.5-.47-.73-.58-.92-1.06-1.69-1.39-2.23-.29-.56-.45-.88-.45-.88,0,0,.64-.18,1.6-.46.94-.27,2.22-.68,3.47-1.12,2.51-.86,4.87-1.83,4.87-1.83,0,0-.37-.24-1.04-.55-.34-.16-.75-.33-1.23-.51-.45-.21-.97-.41-1.56-.61-.58-.2-1.26-.36-1.95-.54-.68-.18-1.41-.33-2.21-.43-.79-.11-1.67-.14-2.54-.16-.87-.01-1.79.05-2.76.2,0,0-.04-.06-.05-.06-.53-.73-1.1-1.43-1.58-2.18-.53-.73-.99-1.48-1.49-2.22-.75.1-1.43.15-2.05.19l.08.13c1.52,2.65,3.16,5.29,4.85,7.93.8,1.36,1.75,2.63,2.6,4.01.46.67.95,1.31,1.41,2l.69,1.03.75.99s.19.25.52.7c.33.44.79,1.11,1.44,1.82.32.37.67.77,1.03,1.2.37.43.76.89,1.21,1.32.45.45.91.91,1.37,1.38.24.24.48.48.72.72l.77.68c1.04.9,2.08,1.87,3.16,2.66,1.07.81,2.06,1.62,2.99,2.21.93.62,1.7,1.14,2.24,1.5.27.19.5.3.65.4.15.09.23.14.23.14l1.64.98c-.58-.01-1.17-.07-1.77-.14-.6-.07-1.2-.13-1.78-.22-.91-.12-1.82-.25-2.74-.4-.97-.13-1.9-.36-2.84-.58-.94-.23-1.89-.44-2.82-.72-1.95-.63-3.96-1.25-5.82-2.09l-1.42-.61-.71-.31-.68-.35-2.72-1.41c-.96-.5-1.83-1.1-2.75-1.65l-1.36-.85c-.43-.3-.85-.61-1.28-.92-.84-.63-1.71-1.24-2.52-1.9l-2.36-2.04c-3.06-2.84-5.84-5.92-8.07-9.25-2.19-3.24-3.94-6.66-5.23-10.17-.39-.99-.67-2.01-.99-3.01-.25-1.02-.56-2.02-.74-3.05,1.29.08,2.41,0,3.4-.18.24,1.07.69,2.77,1.42,4.85.67,1.79,1.55,3.86,2.73,6.01.62,1.06,1.22,2.17,1.97,3.25.7,1.09,1.51,2.17,2.33,3.23.87,1.03,1.75,2.07,2.65,3.06.95.96,1.92,1.89,2.85,2.78.99.85,2,1.64,2.92,2.4.95.74,1.96,1.35,2.83,1.95.85.62,1.77,1.05,2.53,1.47.38.21.74.4,1.08.58.34.17.66.32.94.45,1.18.48,1.86.76,1.86.76,0,0-.65-.31-1.78-.85-.27-.15-.57-.31-.89-.5-.32-.19-.66-.41-1.02-.63-.72-.46-1.59-.93-2.38-1.59-.81-.64-1.75-1.28-2.63-2.06-.85-.79-1.77-1.61-2.68-2.5-.84-.92-1.71-1.88-2.56-2.86-.8-1.01-1.57-2.07-2.34-3.11-.72-1.07-1.42-2.15-2.01-3.24-.64-1.07-1.14-2.18-1.65-3.23-.96-2.13-1.65-4.15-2.14-5.9-.33-1.26-.6-2.36-.74-3.27-.08-.45-.15-.85-.21-1.19-.04-.34-.08-.63-.1-.85.87-.46,1.55-.99,2.09-1.52.55-.54.98-1.08,1.28-1.56.31-.48.5-.91.65-1.21.14-.31.19-.49.19-.49-.61.87-1.42,1.53-2.36,2.04-.94.51-2.02.86-3.1,1.09-2.16.46-4.35.41-5.55.3-.06-.47-.16-.94-.2-1.42-.33-2.98-.35-5.96-.05-8.91.25-2.4.71-4.76,1.34-7.08.24-.82.46-1.63.76-2.43l.42-1.2.48-1.19c.32-.81.69-1.6,1.07-2.38h.02c-.02.18-.07.7-.15,1.42-.04.9-.15,2.08-.14,3.26-.03,1.18.05,2.36.07,3.23.07.87.13,1.46.13,1.46,0,0,.21-.48.54-1.19.36-.71.8-1.64,1.31-2.55.51-.91,1.02-1.81,1.46-2.47.21-.33.38-.6.5-.79.12-.19.2-.3.2-.3.02.78.17,1.64.29,2.29.16.66.3,1.11.3,1.11.62,2.23,1.55,4.34,2.25,6.44.71,2.22,1.46,4.38,2.25,6.48.71,1.94,1.51,3.84,2.32,5.71.8,1.87,1.66,3.7,2.58,5.51l.19.4s.54.14,1.1.27c.55.12,1.11.25,1.11.25-1.1-1.96-2.11-3.97-3.03-6.02-1.76-3.91-3.14-8.01-4.71-12.29-.88-2.45-2.12-4.92-2.85-7.56-.72-2.62-.94-5.41.22-8.14,0,0,.04-.09.07-.17l.08-.17s-1.62,2.24-2.98,4.65c-.7,1.2-1.3,2.43-1.76,3.37-.43.94-.71,1.57-.71,1.57h-.04s0,.11,0,.11v-.12s.04-.46.11-1.27c.03-.41.08-.9.16-1.46.08-.56.14-1.21.28-1.9.24-1.44.61-3.14,1.12-4.94,3.21-8.42,13.37-28.23,40.56-38.93,38.1-14.98,93.7-7.2,165.28,23.15,96.97,41.1,175.12,34.6,223.57,21.91,46.7-12.23,75.61-32.42,81.68-36.95.15-.11.28-.21.4-.3.17-.13.32-.24.45-.33Z"></path>
  </g>
  <g>
    <path class="cls-8 svg-elem-10" d="m104.2,710.79l-7.87-15.78,14.35-14.95-14.32-28.72-20.44,2.75-7.68-15.39,90.9-10.23,7.65,15.34-62.6,66.98Zm17.12-41.83l23.62-24.08-33.39,4.47,9.78,19.6Z"></path>
    <path class="cls-8 svg-elem-11" d="m115.23,726.92l67.77-52.76,9.7,12.44-25.05,61.16,45.26-35.24,9.26,11.88-67.77,52.76-10-12.83,24.29-59.94-44.2,34.41-9.26-11.88Z"></path>
    <path class="cls-8 svg-elem-12" d="m213.2,796.04l13.75,7.9c-2.54,5.15-3.41,9.66-2.6,13.51.8,3.86,3.2,7.22,7.2,10.11,4.23,3.06,8.11,4.4,11.64,4.03,3.53-.37,6.22-1.84,8.06-4.41,1.19-1.65,1.74-3.38,1.67-5.19-.07-1.81-.92-3.95-2.56-6.43-1.13-1.68-3.91-5.23-8.34-10.64-5.7-6.96-8.99-12.82-9.87-17.6-1.24-6.72.13-12.84,4.1-18.36,2.56-3.55,5.88-6.19,9.99-7.93,4.1-1.74,8.51-2.13,13.21-1.2,4.7.94,9.55,3.21,14.56,6.82,8.17,5.9,12.94,12.25,14.31,19.07,1.37,6.82-.15,13.5-4.55,20.06l-13.59-8.87c2.01-3.99,2.66-7.44,1.94-10.34-.72-2.9-2.93-5.69-6.63-8.36-3.82-2.76-7.42-4.07-10.79-3.95-2.17.07-3.9,1.01-5.2,2.82-1.19,1.65-1.55,3.53-1.09,5.64.59,2.69,3.5,7.15,8.73,13.38,5.23,6.23,8.76,11.32,10.58,15.26,1.82,3.94,2.52,8.03,2.1,12.28-.42,4.25-2.22,8.57-5.39,12.98-2.88,4-6.6,6.99-11.19,8.98-4.58,1.99-9.38,2.47-14.39,1.43-5.01-1.04-10.34-3.6-16-7.68-8.23-5.94-13.09-12.54-14.57-19.8-1.48-7.26.16-15.1,4.91-23.52Z"></path>
    <path class="cls-8 svg-elem-13" d="m268.5,866.41l39.46-76.32,14.38,7.47-39.46,76.32-14.38-7.47Z"></path>
    <path class="cls-8 svg-elem-14" d="m304.35,885.03l26.78-81.67,14.97,4.95,13.29,64.86,17.89-54.54,14.29,4.73-26.78,81.67-15.43-5.11-13.24-63.43-17.47,53.26-14.29-4.73Z"></path>
    <path class="cls-8 svg-elem-15" d="m393.91,911.1l7.08-85.72,16.13,1.38-2.79,33.74,31.61,2.71,2.79-33.74,16.13,1.38-7.08,85.72-16.13-1.38,3.09-37.48-31.61-2.71-3.1,37.48-16.13-1.39Z"></path>
    <path class="cls-8 svg-elem-16" d="m514.27,913.46l16.35-49.94-33.61-34.45,18.41-4.29,21.99,23.28,8.98-30.49,18.26-4.25-14.67,46.35,36.82,36.89-19,4.42-24.13-24.96-10.52,33.02-18.89,4.4Z"></path>
    <path class="cls-8 svg-elem-17" d="m582.92,799.29l-6.29,3.04c-.43-.79-.75-1.42-.97-1.88-1.8-3.7-2.35-6.95-1.64-9.75.71-2.8,2.37-4.83,4.99-6.1,1.15-.55,2.28-.94,3.39-1.15,1.11-.21,3.27-.32,6.49-.33,3.21,0,5.56-.37,7.03-1.08,1.05-.51,1.75-1.28,2.12-2.33.36-1.04.24-2.44-.37-4.19l6.39-3.09c2.28,4.77,3.1,8.57,2.47,11.4-.63,2.83-2.22,4.86-4.78,6.1-1.11.54-2.27.95-3.47,1.22-.86.15-3.09.34-6.71.57-3.62.23-6.11.67-7.49,1.34-1.05.51-1.7,1.25-1.96,2.22-.26.97.01,2.31.8,4.02Zm87.72,58.55l-15.83,7.66-14.85-14.55-28.81,13.94,2.6,20.48-15.44,7.47-9.58-91.06,15.39-7.44,66.51,63.52Zm-41.69-17.69l-23.9-23.95,4.24,33.46,19.67-9.51Z"></path>
    <path class="cls-8 svg-elem-18" d="m715.86,825.17l-58.81-62.98,11.81-11.03,23.15,24.79,23.15-21.61-23.15-24.79,11.81-11.03,58.81,62.98-11.81,11.03-25.71-27.54-23.14,21.61,25.71,27.54-11.81,11.03Z"></path>
    <path class="cls-8 svg-elem-19" d="m724.73,678.07l.14,7.42-6.14,8.83.53-14.14,5.55-7.98,13.07-5.4-6.14,8.83-7,2.44Zm19.69,60.82c-7.2-5.02-12.54-10.24-16.03-15.65-2.56-4-4.37-8.3-5.43-12.88-1.06-4.58-1.21-8.89-.45-12.93.99-5.39,3.34-10.77,7.06-16.12,6.74-9.68,15.36-15.18,25.86-16.48s21.51,2.06,33.01,10.08c11.41,7.96,18.32,17.07,20.75,27.33,2.43,10.26.29,20.22-6.43,29.87-6.8,9.77-15.41,15.31-25.83,16.6s-21.26-1.98-32.5-9.83Zm9.03-14.01c8,5.58,15.26,8.1,21.78,7.54,6.52-.55,11.62-3.48,15.3-8.77,3.68-5.29,4.65-11.06,2.92-17.31-1.74-6.25-6.7-12.23-14.9-17.95-8.1-5.65-15.29-8.21-21.57-7.69-6.28.52-11.32,3.52-15.13,8.99-3.81,5.47-4.86,11.28-3.15,17.44,1.7,6.16,6.62,12.08,14.75,17.75Zm62.62,26.79l-13.54-9.45,8.76-12.6,13.54,9.45-8.76,12.6Z"></path>
    <path class="cls-8 svg-elem-20" d="m831.79,681.38l-76.95-38.7,7.23-14.46,76.95,38.7-7.23,14.46Z"></path>
  </g>
  <g>
    <path class="cls-8 svg-elem-21" d="m235.34,317.03l12.41-10.27c3.66,4.11,7.38,6.43,11.15,6.97,3.78.54,7.73-.59,11.87-3.38,4.38-2.95,7.08-6.15,8.11-9.58,1.03-3.43.74-6.45-.86-9.04-1.03-1.67-2.37-2.77-4.02-3.31-1.66-.54-3.91-.46-6.77.25-1.95.5-6.21,1.92-12.79,4.27-8.46,3.02-15,4.15-19.64,3.38-6.52-1.09-11.5-4.42-14.94-9.99-2.21-3.59-3.31-7.6-3.28-12.03.02-4.43,1.36-8.7,4.01-12.8,2.65-4.1,6.57-7.9,11.75-11.39,8.46-5.7,16.02-8.05,22.68-7.05,6.66,1,12.09,4.66,16.3,10.98l-13.22,9.79c-2.81-3.23-5.67-4.99-8.56-5.28-2.89-.3-6.25.85-10.08,3.43-3.95,2.66-6.52,5.6-7.71,8.8-.77,2.06-.59,4,.53,5.83,1.03,1.67,2.58,2.64,4.66,2.91,2.64.35,7.78-.89,15.4-3.71,7.62-2.83,13.56-4.44,17.81-4.83,4.25-.39,8.2.32,11.86,2.14,3.66,1.82,6.86,4.96,9.6,9.41,2.49,4.04,3.74,8.54,3.77,13.51.03,4.97-1.39,9.63-4.26,13.99-2.87,4.36-7.22,8.51-13.08,12.45-8.52,5.74-16.33,8.09-23.43,7.05-7.1-1.04-13.52-5.2-19.27-12.48Z"></path>
    <path class="cls-8 svg-elem-22" d="m314.21,299.38l-32.9-76.45,14.72-7.02,32.9,76.45-14.72,7.02Z"></path>
    <path class="cls-8 svg-elem-23" d="m340.2,286.29l-21.6-80.83,57-17.27,3.65,13.67-41.48,12.57,4.79,17.92,38.6-11.69,3.64,13.62-38.6,11.69,5.88,22,42.95-13.01,3.64,13.62-58.47,17.71Zm-12.98-88.44l6.67-19.6,13.63-4.13,15.2,12.98-11.85,3.59-8.28-6.37-3.47,9.93-11.9,3.61Z"></path>
    <path class="cls-8 svg-elem-24" d="m403.8,182.76l16.08-1.15,2.34,45.51c.37,7.22.81,11.89,1.32,14,.86,3.39,2.65,6.03,5.34,7.93,2.7,1.9,6.29,2.69,10.78,2.37,4.56-.33,7.95-1.55,10.17-3.69,2.22-2.13,3.49-4.65,3.81-7.55.32-2.9.31-7.67-.03-14.32l-2.39-46.48,16.08-1.15,2.27,44.13c.52,10.09.45,17.24-.2,21.47-.65,4.23-2.08,7.86-4.27,10.89-2.19,3.03-5.2,5.54-9.02,7.52-3.82,1.98-8.89,3.19-15.19,3.64-7.61.54-13.42.03-17.45-1.55-4.03-1.57-7.26-3.76-9.69-6.56-2.43-2.8-4.1-5.8-4.99-8.99-1.3-4.74-2.19-11.81-2.67-21.21l-2.3-44.82Z"></path>
    <path class="cls-8 svg-elem-25" d="m531.4,270.53l15.71-68.29-23.01-5.36,3.2-13.9,61.64,14.36-3.2,13.9-22.96-5.35-15.71,68.29-15.66-3.65Z"></path>
    <path class="cls-8 svg-elem-26" d="m576.4,281.71l34.3-76.85,14.59,6.84-13.5,30.25,28.59,13.41,13.5-30.25,14.59,6.84-34.3,76.85-14.59-6.84,15-33.6-28.59-13.41-15,33.6-14.59-6.84Z"></path>
    <path class="cls-8 svg-elem-27" d="m632.94,336.63l8.62-13.57,12.72,8.6-8.62,13.57-12.72-8.6Zm11.94-19.61l44.96-70.8,13.4,9.06-44.96,70.8-13.4-9.06Z"></path>
  </g>
  <g class="cls-5">
    <g class="cls-4">
      <path class="cls-3 svg-elem-28" d="m96.96,627.09c-6.42,2.9-13.03,6.49-16.65,12.74-5.41,9.34-2.23,22,4.66,30.22,6.88,8.21,16.67,13,26.17,17.56,51.88,24.9,106.7,43.97,163.14,52.97,88.92,14.17,178.07-6.78,267.19,5.89,15.98,2.27,31.76,5.81,47.48,9.57,90.56,21.71,179.41,51.23,265.34,88.17-26.85.1-53.71.19-80.56.29-81.44.29-162.87.58-244.31.35-59.67-.17-119.35-.61-179.01-1.33-85.94-1.04-172.56-2.6-257.05,13.85-30.31,5.9-62.05,14.03-91.34,3.95,6.49-65.83,6.61-132.34.36-198.19-1.26-13.23-5.73-58.82,2.38-69.06,4.3-5.43,10.02-11.21,16.76-11.46,38.61-1.47,71.91,1.12,117.2-4.95,22.6-3.03,57.06-.3,79.47-4.64,14.78-2.86,77.13-5.36,94.89-6.03-25.83,13.1-83.45,26.04-103.95,30.79-37.59,8.71-76.52,13.21-112.16,29.32Z"></path>
      <path class="cls-2 svg-elem-29" d="m331.29,583.12c-31.33,8.14-61.32,21.91-88.25,40.51-3.11,2.15-6.5,4.95-6.59,8.84-.11,4.41,4.03,7.48,7.77,9.52,10.82,5.87,22.45,10.1,34.42,12.51,8.47,1.7,17.18,2.52,25.28,5.61,9.87,3.76,18.37,10.72,28.19,14.62,8.09,3.22,16.9,4.29,24.83,7.93,10.69,4.91,18.99,14.1,28.85,20.64,13.46,8.92,29.47,12.67,43.54,20.51,1.98,1.1,4.16,3.71,2.57,5.36-.65.68-1.67.75-2.59.76-8.71.08-17.37-1.65-26.08-1.65-11.04,0-21.88,2.79-32.85,4.04-22.1,2.53-44.37-1.18-66.28-5.12-25.32-4.56-50.57-9.46-75.83-14.36-10.83-2.1-21.72-4.22-32.03-8.26-11.62-4.56-22.45-11.54-34.61-14.12-4.19-.89-8.47-1.24-12.62-2.31-8.04-2.09-15.22-6.8-23.07-9.58-7.24-2.57-15.01-3.47-21.99-6.71-6.99-3.25-13.4-9.82-13.38-17.81.03-10.89,11.09-17.64,20.79-21.63,57.59-23.7,120.15-31.04,178.94-51.28,17.11-5.89,48.59-21.83,66.35-13.13-3.47,9.91-16.69,12.88-25.35,15.13Z"></path>
      <path class="cls-3 svg-elem-30" d="m365.1,566.36c2.04,7.27-4.86,13.74-11.23,17.36-34.09,19.42-77.95,21.38-104.76,50.73,51.92,13.75,104.32,28.71,150.58,56.93,19.34,11.8,38.14,26.12,60.18,30.25,13.17,2.47,26.68,1.1,40.03.13,25.08-1.83,47.21,4.84,72.08,8.71,30.49,4.75,62.87,8.75,91.85,19.74,36.1,13.69,72.19,27.38,108.29,41.06,32.02,12.14,64.53,24.55,92.02,45.56,6.78,5.18,16.99,10.63,22.44,3.95,28.33-1.65,56.75-2.47,85.08-4.12.67-10.97,1.34-21.93,2.02-32.9,1.17-19.11,2.21-39.07-5.13-56.62-2.19-5.25-5.33-10.39-10.15-13.09-3.32-1.86-7.15-2.41-10.88-2.94-70.83-10-141.24-23.28-210.95-39.77-45.21-10.69-90.3-22.77-136.42-27.61-21.49-2.26-43.27-2.95-64.21-8.46-15.79-4.15-30.91-10.99-46.92-14.06-14.85-2.84-30.1-2.36-45.07-4.31-20.03-2.61-39.29-9.52-58.37-16.39-2.88-1.04-5.93-2.2-7.77-4.74-4.39-6.05.93-14.52,6.51-19.39,10.76-9.38,32.01-23.78,45.6-27.37-30.11,1.15-42.66-4.03-64.79-2.65Z"></path>
      <path class="cls-1 svg-elem-31" d="m477.76,596.57c4.95,7.68,14.2,10.7,22.73,13.19,34.24,10.02,68.49,20.04,102.73,30.06,20.94,6.13,41.95,12.27,63.51,15.27,18.76,2.61,37.75,2.81,56.68,3,77.19.79,154.47,1.58,231.49-3.85,2.55,22.47,5.11,44.95,7.66,67.42-88.72-14.25-177.54-28.51-265.07-49.33-29.75-7.08-59.55-14.94-90.02-16.61-11.34-.62-22.79-.39-33.96-2.53-11.89-2.28-23.15-7.19-34.67-10.99-22.98-7.59-47.03-10.81-70.93-14-17.95-2.39-35.9-4.79-53.85-7.18-8.84-1.18-20.18-5.26-19.75-14.56.2-4.39,3.26-8.01,6.32-11.01,14.16-13.85,32.55-22.71,51.7-25.61,5.3-.8,22.84-4.2,26.07,1.55,3.89,6.94-6.3,16.4-.64,25.17Z"></path>
      <path class="cls-2 svg-elem-32" d="m511.02,572.87c1.88.18,3.84.38,5.43,1.44,1.81,1.2,2.84,3.29,4.03,5.15,5.52,8.65,15.14,13.22,24.27,17.36,9.65,4.38,19.34,8.77,29.52,11.57,5.48,1.51,11.08,2.55,16.5,4.25,7.55,2.38,14.68,6.01,22.02,9.02,13.28,5.44,27.24,8.83,41.2,11.89,33.63,7.39,67.61,13.05,101.77,16.96-23.52,1.5-47.14,1.42-70.66-.12-16.89-1.1-33.91-2.99-49.9-8.78-7.91-2.86-15.51-6.66-23.57-9.03-13.9-4.09-28.7-3.79-42.64-7.75-9.87-2.8-19.09-7.68-28.9-10.72-9.1-2.82-18.61-4.03-27.74-6.76-9.59-2.87-18.72-7.41-26.89-13.39-.8-5.54-1.09-17.77,3.97-21.6,4.71-3.57,16.15,0,21.58.5Z"></path>
      <path class="cls-1 svg-elem-33" d="m605.96,594.75c31.97,4.95,63.94,9.9,95.91,14.84,13.11,2.03,26.24,4.06,39.48,4.6,7.7.31,15.43.12,23.11.89,19.03,1.89,37.27,9.61,56.36,10.61,24.21,1.27,47.86-8.33,72.1-8.77,7.9-.14,15.79.69,23.69.4,13.81-.5,27.27-4.42,40.58-8.3-2.64,12.04-3.9,24.41-3.75,36.76-30.4,9.18-62.63,8.25-94.26,7.25-27.36-.87-54.78-1.74-81.93-5.42-24.29-3.29-48.24-8.82-72.15-14.34-18.41-4.25-36.82-8.5-55.23-12.75-7.15-1.65-14.3-3.3-21.36-5.31-8.65-2.46-17.15-5.45-25.64-8.44-9.17-3.23-18.34-6.45-27.5-9.68-15.44-5.43-31.38-11.18-43.31-22.77,1.15,1.11,15.23-1.35,18.9.49,4.39,2.2,7.47,6.43,11.84,8.86,12.85,7.15,29,8.88,43.17,11.07Z"></path>
      <path class="cls-2 svg-elem-34" d="m590.09,583.84c5.31,2.28,10.97,3.48,16.6,4.66,36.38,7.67,72.97,15.36,110.07,16.52,9.75.31,19.53.16,29.24,1.23,27.68,3.06,54.32,15.98,82.11,14.36,13.56-.79,26.7-5.03,40.12-7.23,14.65-2.4,29.56-2.36,44.35-3.44,14.64-1.06,29.2-3.22,43.54-6.46.59-5.93,1.17-11.87,1.76-17.8.25-2.51.32-5.5-1.6-7.04-1.24-1-2.93-1.04-4.5-1.03-46.65.11-93.47.24-139.7,6.72-13.17,1.85-26.33,4.21-39.62,4.34-17.69.17-35.18-3.61-52.82-4.96-36.76-2.81-74.24,4.95-110.31-2.99-7.2-1.58-14.3-3.83-21.64-4.69-12.33-1.45-3.9,5.09,2.41,7.79Z"></path>
    </g>
  </g>
</svg>